<svg xmlns="http://www.w3.org/2000/svg" viewBox="0 0 64 64">
  <defs>
    <linearGradient id="g" x1="0" y1="0" x2="1" y2="1">
      <stop offset="0" stop-color="#3a2a1a"/>
      <stop offset="0.55" stop-color="#7a4a24"/>
      <stop offset="1" stop-color="#c1352b"/>
    </linearGradient>
  </defs>
  <rect x="4" y="4" width="56" height="56" rx="16" fill="url(#g)"/>
  <path d="M32 17.4c-4.9-3.6-12.4-4.6-20.4-3.4v32.2c8-1.2 15.5-.2 20.4 3.4 4.9-3.6 12.4-4.6 20.4-3.4V14C44.4 12.8 36.9 13.8 32 17.4Z"
        fill="none" stroke="#fff" stroke-width="3" stroke-linecap="round" stroke-linejoin="round"/>
  <path d="M32 17.4v32.2"
        fill="none" stroke="#fff" stroke-width="3" stroke-linecap="round"/>
  <rect x="44" y="44" width="14" height="14" rx="5" fill="#c1352b" stroke="#f5e9d8" stroke-width="2"/>
  <path d="M51 47l1.1 3.4 3.4 1.1-3.4 1.1-1.1 3.4-1.1-3.4-3.4-1.1 3.4-1.1z" fill="#f5e9d8"/>
</svg>
